<?xml version="1.0" encoding="UTF-8" standalone="no"?>
<svg
   xmlns:dc="http://purl.org/dc/elements/1.1/"
   xmlns:cc="http://creativecommons.org/ns#"
   xmlns:rdf="http://www.w3.org/1999/02/22-rdf-syntax-ns#"
   xmlns:svg="http://www.w3.org/2000/svg"
   xmlns="http://www.w3.org/2000/svg"
   xmlns:sodipodi="http://sodipodi.sourceforge.net/DTD/sodipodi-0.dtd"
   xmlns:inkscape="http://www.inkscape.org/namespaces/inkscape"
   width="210mm"
   height="297mm"
   viewBox="0 0 210 297"
   version="1.1"
   id="svg8"
   inkscape:version="1.0.2 (e86c870879, 2021-01-15)"
   sodipodi:docname="teacups.svg">
  <defs
     id="defs2">
    <rect
       x="145.67567"
       y="48.353234"
       width="1.2319295"
       height="10.779383"
       id="rect258" />
  </defs>
  <sodipodi:namedview
     id="base"
     pagecolor="#ffffff"
     bordercolor="#666666"
     borderopacity="1.0"
     inkscape:pageopacity="0.0"
     inkscape:pageshadow="2"
     inkscape:zoom="0.85908593"
     inkscape:cx="451.64131"
     inkscape:cy="666.66906"
     inkscape:document-units="mm"
     inkscape:current-layer="layer1"
     inkscape:document-rotation="0"
     showgrid="false"
     inkscape:window-width="2560"
     inkscape:window-height="1387"
     inkscape:window-x="-8"
     inkscape:window-y="22"
     inkscape:window-maximized="1" />
  <metadata
     id="metadata5">
    <rdf:RDF>
      <cc:Work
         rdf:about="">
        <dc:format>image/svg+xml</dc:format>
        <dc:type
           rdf:resource="http://purl.org/dc/dcmitype/StillImage" />
        <dc:title></dc:title>
      </cc:Work>
    </rdf:RDF>
  </metadata>
  <g
     inkscape:label="Layer 1"
     inkscape:groupmode="layer"
     id="layer1">
    <path
       style="fill:none;stroke:#000000;stroke-width:0.264583px;stroke-linecap:butt;stroke-linejoin:miter;stroke-opacity:1"
       d="M 3.8536688,29.350304 C 25.95402,41.586568 50.406634,31.980188 74.03642,29.589072 c 7.57147,-0.766162 14.750066,0.588899 22.262536,1.026697 5.166364,0.301074 10.296604,0.517326 15.472204,0.517326 2.10217,0 4.20271,-0.07163 6.30529,-0.07163 0.40419,0 1.61675,0 1.21256,0 -3.66154,0 -5.17946,3.405383 -2.81313,6.335273 3.70604,4.588663 12.33046,4.718685 17.65482,5.141439 6.38217,0.506743 33.9142,3.180879 32.78752,-8.898033 -0.10678,-1.144712 -1.55207,-4.229769 -1.55207,-3.080089 0,3.332634 2.3342,5.946476 -1.38232,8.173776 -5.95133,3.566612 -15.59942,3.748458 -22.21403,3.812304 -3.43495,0.03316 -9.94637,-2.9953 -13.24111,-4.337592 -4.33375,-1.765583 -7.53831,-4.082547 -7.51785,-4.003318 2.20451,8.537181 30.67034,6.195095 36.64345,1.918092 0.61757,-0.442206 4.19314,-5.117753 3.61342,-5.165318 -1.40104,-0.114951 -3.32557,4.534527 -4.87448,5.268783 -1.14002,0.540422 -5.57461,-2.39872 -4.58346,-3.374567 2.35707,-2.320679 4.00916,-3.431196 6.08703,-5.817947 1.36353,-1.566222 4.18229,-14.397892 8.46364,-9.128839 5.1102,6.289106 -8.279,15.41536 -10.50073,11.405081 -0.42496,-0.76705 7.82975,-1.821407 8.90016,-7.266461 0.20815,-1.058873 -0.57912,-2.8479 -1.94009,-2.252366 -1.09532,0.479293 -3.05564,3.07389 -3.05564,1.878298 0,-2.05428 1.0428,-4.018663 1.0428,-6.335273 0,-1.590619 4.0271,-6.2545219 3.39515,-6.7730099 -5.36913,-4.405188 -15.69655,-0.780354 -21.729,-0.652629 -5.30345,0.112291 -11.45825,-0.774753 -16.70903,0.374068 -5.60517,1.226359 -0.98224,-2.862654 2.71613,-3.414361 3.73805,-0.557625 35.6497,0.505931 36.47369,2.507049 1.11287,2.7027029 -5.03676,3.5598279 -6.4508,3.7327179 -11.47959,1.403556 -22.72088,-0.652045 -33.78182,-3.3268159 -0.72696,-0.175794 -1.45512,-0.07519 -1.96434,0.517327 -2.28779,2.6619989 -1.61642,7.6919719 -0.67903,10.7683719 3.67176,12.050199 8.98778,15.717403 22.21403,14.477211 0.98657,-0.09251 5.22234,0.667417 6.11128,-0.159178 1.68791,-1.569516 -11.5795,-1.433888 -13.79889,-1.910133 -10.70304,-2.296695 -13.75038,-9.676783 -13.75038,-20.000677 0,-9.0961179 10.3128,-3.8680179 16.61202,-3.8680179 4.45062,0 21.02832,-1.080484 23.74185,0.923232 2.14603,1.5846719 -7.98916,11.6171289 2.81313,19.3639649 1.10988,0.795954 2.12146,2.944744 3.34665,3.406405 8.77026,3.30469 25.98498,-1.738898 35.43089,1.480351"
       id="path218" />
    <path
       style="fill:none;stroke:#000000;stroke-width:0.264583px;stroke-linecap:butt;stroke-linejoin:miter;stroke-opacity:1"
       d="m 7.6098578,71.984215 c 11.4191492,6.98814 24.5055872,9.02388 37.7832492,7.64053 10.170511,-1.05962 55.885143,-11.41857 64.410993,-3.02437 0.10812,0.10645 -10.608065,13.159752 13.62913,16.618152 10.43674,1.48921 20.65296,1.15495 30.65342,-2.27624 11.95071,-4.10034 13.16647,-14.947692 10.8645,-13.625612 -0.69849,0.40116 -0.3601,4.51692 -1.06705,5.618972 -6.18746,9.64553 -29.43881,12.96891 -39.04431,9.08905 -3.23253,-1.30569 -1.79083,-4.10433 -3.10414,-4.96635 -2.85873,-1.87639 -4.83046,-1.84999 -7.32384,-4.918592 -0.79699,-0.98085 -1.67042,-4.07176 -2.32811,-2.99254 -0.41341,0.67839 1.24373,2.36638 1.55208,2.78561 6.3235,8.597612 15.50768,7.762712 25.51218,7.147082 5.7776,-0.35552 9.66559,-2.86615 14.79318,-4.85492 3.25552,-1.26268 11.7782,-6.170242 8.29389,-6.398942 -4.39495,-0.28848 -10.33292,9.972442 -14.21116,8.133982 -6.58997,-3.12395 3.45071,-6.324372 6.06278,-8.181742 5.36813,-3.81711 12.3907,-23.23464 10.13697,-26.93286 -1.84736,-3.03139 -15.84943,-3.43824 -18.86738,-3.43824 -8.29834,0 -25.43733,-2.158918 -31.81747,4.1227 -0.025,0.0246 4.21824,16.30308 4.85022,17.84382 0.19725,0.48088 1.25598,5.74799 1.21256,5.76223 -1.32767,0.43572 -5.47153,0.9869 -4.07419,0.9869 1.54015,0 3.06794,-1.18385 4.65622,-0.92322 1.59345,0.26147 0.12703,3.56432 1.30956,4.6639 2.75483,2.56161 18.36796,4.948682 20.90447,2.45134 1.11787,-1.10062 -17.29464,-3.75571 -18.72187,-4.75942 -4.43682,-3.12022 -4.53992,-12.06495 -6.06278,-16.72957 -0.44994,-1.37819 -6.21687,-8.83931 -3.05564,-8.6911 2.10424,0.0986 4.12178,3.49715 6.4508,4.04311 9.27461,2.17414 18.89422,0.92995 28.27681,0.0318 5.91766,-0.56645 15.08752,-7.417 20.51645,-6.30344 9.59012,1.96709 -5.1927,23.20423 -7.95437,19.57885 -3.09219,-4.05924 12.24248,-10.43836 7.27533,-15.32881 -8.88262,-8.745467 -7.82932,13.99923 1.69758,22.85792 0.85178,0.79203 28.47824,-0.59695 33.36955,0.82772"
       id="path242" />
    <path
       style="fill:none;stroke:#000000;stroke-width:0.264583px;stroke-linecap:butt;stroke-linejoin:miter;stroke-opacity:1"
       d="m 7.899769,135.73246 c 8.342096,4.3395 16.864614,6.62579 26.28822,6.54221 24.034016,-0.21318 49.78374,-9.41293 73.820411,-4.67983 1.15768,0.22796 -1.71935,1.80163 -1.94009,2.96071 -0.63674,3.34352 0.53976,5.92245 3.34666,7.65644 9.02974,5.57824 19.82427,5.77815 30.1684,5.77815 7.19741,0 26.37109,-1.4289 29.58637,-9.51882 0.86386,-2.17357 2.72976,-8.43965 0.92154,-6.95607 -1.63059,1.33785 -1.47364,5.62744 -2.91014,7.51319 -4.98886,6.54911 -17.81727,6.83877 -25.36667,7.76787 -6.68165,0.82231 -18.94215,1.27641 -24.93016,-1.67136 -0.77585,-0.38194 0.50119,-12.4424 -3.68617,-9.69393 -5.72451,3.75742 26.39201,6.90025 29.82888,6.39895 9.22988,-1.34628 17.9279,-6.97395 17.2183,-7.05157 -4.13002,-0.45181 -8.01966,8.22067 -13.0956,5.5553 -5.51036,-2.89348 2.55672,-5.11912 4.4137,-5.87366 11.49208,-4.66953 12.65909,-12.89113 12.65909,-24.40194 0,-2.96556 -0.6106,-6.39676 0.82454,-9.10497 0.69174,-1.30537 4.37871,-3.18207 2.91013,-3.34273 -4.03334,-0.44122 -15.94601,7.82929 -20.85597,9.10497 -8.1171,2.10894 -20.24158,1.26706 -27.98579,-1.78279 -2.6381,-1.03895 -9.2748,-6.25665 -8.73041,-5.80999 6.39344,5.2456 6.4993,17.20231 6.4993,24.94315 0,0.97349 0.8529,3.19253 0.33952,4.05903 -0.78944,1.33242 -5.08021,2.84004 -3.54066,3.00846 8.67466,0.94896 18.16086,10.48441 28.37381,6.57403 0.7659,-0.29325 -10.14391,-1.91355 -16.73328,-5.15735 -5.59346,-2.75355 -14.99731,-32.3911 -14.16265,-33.39548 5.18067,-6.234163 47.88486,-11.236613 53.886,-3.35865 2.61478,3.43254 -1.41973,15.1616 -1.74609,18.91031 -0.26668,3.06326 -0.38801,12.29124 -0.38801,9.21639 0,-8.88587 9.44275,-13.41565 12.51358,-20.47026 4.13586,-9.501343 -12.07706,-6.92558 -12.07706,-2.35582 0,7.39791 8.35493,-4.48393 7.42084,2.26032 -0.58243,4.20522 -11.17808,15.70067 -5.86877,20.13598 17.22045,14.38567 21.17173,0.90527 38.8988,9.21638"
       id="path248" />
    <path
       style="fill:none;stroke:#000000;stroke-width:0.264583px;stroke-linecap:butt;stroke-linejoin:miter;stroke-opacity:1"
       d="m 5.5111365,194.79511 c 11.1098165,4.6644 22.4068825,6.9484 34.4850985,7.46544 22.3893,0.95841 44.510605,-9.98282 66.836095,-6.31936 0.60314,0.099 3.78318,0.76984 3.78318,0.65263 0,-2.38814 -3.85185,3.89479 -3.49217,6.25568 0.26501,1.73945 3.30213,3.22322 4.55922,4.07495 6.86796,4.65336 18.25639,4.52065 26.14271,4.52065 6.91096,0 37.65245,3.3411 34.5821,-11.26978 -1.82561,-8.68751 0.22137,5.04157 -5.43225,8.13398 -8.35594,4.5705 -21.49484,2.86441 -30.65342,2.00564 -5.05642,-0.47413 -10.89212,0.76788 -15.66623,-1.32118 -4.11201,-1.79934 -7.77708,-7.92759 -7.61485,-7.76787 6.54651,6.44543 48.49329,13.23993 51.07287,0.5412 0.65337,-3.21642 -13.07397,9.59855 -16.29676,4.83901 -3.16483,-4.67395 6.26577,-5.24712 8.29388,-5.74632 15.30296,-3.76666 10.5735,-17.19026 10.5735,-28.89075 0,-6.55507 7.38296,-12.59717 5.96577,-12.82972 -3.29926,-0.54139 -42.68735,25.87997 -53.01296,6.11242 -2.01776,-3.86285 75.57979,-15.54858 37.44374,1.73504 -8.7186,3.95135 -20.97391,5.48114 -30.45941,3.61333 -1.89999,-0.37413 -10.51615,-6.48143 -11.05851,-6.30343 -1.86116,0.6108 5.48075,8.87384 5.48075,16.07694 0,3.08343 1.33619,8.46919 0.38802,11.26978 -0.2568,0.75849 -6.31489,4.55507 -6.15979,4.61616 1.29989,0.51192 8.1815,-1.19811 6.25679,-3.72476 -1.71478,-2.25107 3.57836,4.68251 6.15979,5.84182 3.31225,1.48752 7.03132,1.44518 10.57349,2.16482 1.03868,0.21102 4.19092,0.62683 3.15264,0.41386 -19.4486,-3.98923 -15.7642,-10.1456 -20.66195,-24.29052 -0.85604,-2.47228 -4.58091,-6.83128 -2.47362,-9.53474 4.94135,-6.3393 16.45245,-5.61461 23.37809,-6.25569 8.08455,-0.74835 18.45305,-4.25166 26.67623,-2.32399 6.38384,1.49649 -2.91013,7.94656 -2.91013,11.23794 0,1.18486 4.04246,-6.70948 8.34238,-7.76787 4.36966,-1.07554 7.71162,4.10733 5.96578,8.02256 -2.52042,5.65231 -6.98013,10.28327 -9.94296,15.63125 -0.79715,1.43887 -1.76859,5.80603 -2.42512,4.2978 -2.33319,-5.36006 11.1425,-14.11327 8.05138,-21.55266 -1.34803,-3.2443 -9.21543,-1.69327 -9.21543,1.84646 0,9.37638 3.85385,18.43653 10.6705,25.7072 1.28162,1.36699 20.88496,-2.14611 24.78464,-0.38203"
       id="path254" />
    <text
       xml:space="preserve"
       id="text256"
       style="fill:black;fill-opacity:1;line-height:1.25;stroke:none;font-family:sans-serif;font-style:normal;font-weight:normal;font-size:10.58333333px;white-space:pre;shape-inside:url(#rect258);" />
    <path
       style="fill:none;stroke:#000000;stroke-width:0.264583px;stroke-linecap:butt;stroke-linejoin:miter;stroke-opacity:1"
       d="m 6.5077684,252.25527 c 24.1764646,10.90479 47.6755416,10.19225 73.4324006,4.60024 6.521979,-1.41598 13.146326,-2.35377 19.788921,-2.97663 3.09147,-0.28988 10.92826,-2.87432 9.31243,-0.22285 -12.086798,19.8336 27.41705,21.77987 38.60779,20.88413 7.24089,-0.57963 19.13766,-1.46958 24.44513,-7.17893 2.15931,-2.32281 2.40835,-15.87493 0.19401,-14.4215 -1.0765,0.70659 1.43765,9.5998 0.67903,11.50855 -3.94495,9.92588 -38.60268,13.73014 -46.99868,9.67802 -4.65289,-2.24563 -2.0229,-9.27911 -10.47648,-14.59661 -0.0638,-0.0401 -2.09224,-1.65612 -2.1341,-1.55994 -2.68955,6.17871 25.62243,12.8057 29.92588,12.24076 3.23908,-0.4252 6.53157,-0.8503 9.70045,-1.65544 0.0364,-0.009 19.54522,-9.07333 12.7561,-10.18738 -0.59791,-0.0981 -9.33239,10.85807 -15.18121,9.48699 -4.15536,-0.97409 -0.30507,-7.31689 2.1341,-8.07031 22.13804,-6.83802 12.13604,-12.55675 17.89733,-28.7634 0.9611,-2.7036 6.75197,-6.71397 4.02569,-7.6087 -2.28004,-0.74827 -41.98079,22.23939 -62.27689,5.58714 -7.40104,-6.0723 59.51647,-5.18989 59.56076,-5.03002 1.61657,5.83591 -38.92139,11.63614 -43.06999,11.03102 -4.11221,-0.59981 -8.54619,-1.07685 -12.17407,-3.23131 -0.48964,-0.29078 -4.87942,-3.67361 -5.28674,-2.73785 -1.23393,2.83469 5.71588,8.60805 6.69331,11.17427 0.83519,2.19278 3.32522,6.3897 2.57062,8.8662 -0.81817,2.68512 -9.18822,6.42229 -6.74182,5.04593 2.51123,-1.41283 9.1143,-1.63038 7.61486,-4.09087 -0.16246,-0.26658 -3.30012,4.50246 3.29815,7.2585 5.31504,2.22005 13.89162,5.18264 19.74041,3.26315 0.74145,-0.24333 -10.08623,-1.74365 -17.99433,-4.12271 -6.25242,-1.88096 -16.2843,-22.1701 -13.14411,-28.20628 6.06881,-11.66567 47.66078,-9.03109 57.28116,-3.97944 1.34193,0.70464 -0.61776,3.65355 -0.29102,3.86801 0.81436,0.53453 5.71765,-2.33384 6.64481,-2.54684 11.87473,-2.72798 -2.22619,10.68886 -3.97719,13.49827 -1.92859,3.09437 -4.21969,13.73804 -4.21969,10.09186 0,-4.5607 11.12057,-13.82921 13.67763,-17.95524 6.55171,-10.57172 -12.9016,-13.06911 -12.9016,3.0403 0,1.37745 -0.77829,5.7141 0,6.94014 13.05634,20.56757 15.55614,4.13573 33.90308,13.03666"
       id="path274" />
  </g>
</svg>
